<?xml version="1.0" encoding="utf-8"?>
<!-- Generator: Adobe Illustrator 17.0.0, SVG Export Plug-In . SVG Version: 6.00 Build 0)  -->
<!DOCTYPE svg PUBLIC "-//W3C//DTD SVG 1.1//EN" "http://www.w3.org/Graphics/SVG/1.1/DTD/svg11.dtd">
<svg version="1.1" xmlns="http://www.w3.org/2000/svg" xmlns:xlink="http://www.w3.org/1999/xlink" x="0px" y="0px" width="324px"
	 height="324px" viewBox="0 0 324 324" enable-background="new 0 0 324 324" xml:space="preserve">
<g id="Capa_1">
	<circle fill="none" stroke="#3C3C3B" stroke-width="3" stroke-miterlimit="10" cx="162.667" cy="163.548" r="151.952"/>
	<path fill="none" stroke="#3C3C3B" stroke-width="3" stroke-miterlimit="10" d="M44.448,210.563
		c-5.789-14.544-8.972-30.408-8.972-47.015c0-70.245,56.945-127.19,127.19-127.19c47.383,0,88.714,25.91,110.599,64.334"/>
	<line fill="none" stroke="#3C3C3B" stroke-width="3" stroke-miterlimit="10" x1="64.596" y1="97.476" x2="229.262" y2="96.81"/>
	<line fill="none" stroke="#3C3C3B" stroke-width="3" stroke-miterlimit="10" x1="236.596" y1="97.476" x2="241.262" y2="97.476"/>
	<line fill="none" stroke="#3C3C3B" stroke-width="3" stroke-miterlimit="10" x1="41.929" y1="149.476" x2="176.262" y2="148.81"/>
	
		<line fill="none" stroke="#3C3C3B" stroke-width="3" stroke-miterlimit="10" x1="183.596" y1="149.476" x2="188.262" y2="149.476"/>
	<line fill="none" stroke="#3C3C3B" stroke-width="3" stroke-miterlimit="10" x1="41.929" y1="139.953" x2="195.933" y2="139.286"/>
	
		<line fill="none" stroke="#3C3C3B" stroke-width="3" stroke-miterlimit="10" x1="203.267" y1="139.953" x2="207.933" y2="139.953"/>
	<line fill="none" stroke="#3C3C3B" stroke-width="3" stroke-miterlimit="10" x1="191.096" y1="149.476" x2="207.933" y2="148.81"/>
	
		<line fill="none" stroke="#3C3C3B" stroke-width="3" stroke-miterlimit="10" x1="192.596" y1="159.476" x2="197.262" y2="159.476"/>
	
		<line fill="none" stroke="#3C3C3B" stroke-width="3" stroke-miterlimit="10" x1="195.596" y1="200.476" x2="200.262" y2="200.476"/>
	
		<line fill="none" stroke="#3C3C3B" stroke-width="3" stroke-miterlimit="10" x1="227.596" y1="223.476" x2="232.262" y2="223.476"/>
	<line fill="none" stroke="#3C3C3B" stroke-width="3" stroke-miterlimit="10" x1="45.93" y1="209.026" x2="174.262" y2="208.36"/>
	
		<line fill="none" stroke="#3C3C3B" stroke-width="3" stroke-miterlimit="10" x1="179.096" y1="209.693" x2="197.929" y2="209.026"/>
	
		<line fill="none" stroke="#3C3C3B" stroke-width="3" stroke-miterlimit="10" x1="177.096" y1="218.693" x2="195.929" y2="218.026"/>
	<line fill="none" stroke="#3C3C3B" stroke-width="3" stroke-miterlimit="10" x1="64.596" y1="228.953" x2="171.933" y2="228.286"/>
	
		<line fill="none" stroke="#3C3C3B" stroke-width="3" stroke-miterlimit="10" x1="177.267" y1="228.953" x2="181.933" y2="228.953"/>
	<line fill="none" stroke="#3C3C3B" stroke-width="3" stroke-miterlimit="10" x1="61.262" y1="218.36" x2="161.764" y2="217.693"/>
	<line fill="none" stroke="#3C3C3B" stroke-width="3" stroke-miterlimit="10" x1="167.098" y1="218.36" x2="171.764" y2="218.36"/>
	<line fill="none" stroke="#3C3C3B" stroke-width="3" stroke-miterlimit="10" x1="57.589" y1="109.27" x2="222.256" y2="108.603"/>
	<g>
		<path fill="#DADADA" stroke="#3C3C3B" stroke-width="3" stroke-miterlimit="10" d="M242.738,174.984
			c4.362,3.71,4.954,10.179,1.323,14.449l-29.352,34.514c-3.632,4.27-10.112,4.724-14.474,1.015l0,0
			c-4.362-3.71-4.954-10.179-1.323-14.449l29.352-34.514C231.895,171.728,238.375,171.274,242.738,174.984L242.738,174.984z"/>
		<path fill="#DADADA" stroke="#3C3C3B" stroke-width="3" stroke-miterlimit="10" d="M285.762,148.595
			c-3.974-2.257-13.424-4.284-16.667-7.504c-4.224-4.194-8.333-18.163-16.5-17.163c-10.122,1.239-7.413-0.959-10-0.167
			c-3.124,0.956-3.803,0.341-8.536,0.341c-1.5,0-5.964,4.615-5.964,4.615s-1.119,0.905-1.721,1.415l-19.314,16.381
			c-3.067,2.601-2.844,7.903,0.498,11.843s8.536,5.025,11.603,2.424l9.746-8.266l-2.635,3.315c-0.549,0.69-1.01,1.418-1.398,2.167
			c-0.355,0.367-0.694,0.755-0.993,1.186l-0.226,0.326c-3.348,4.826-1.647,11.8,3.798,15.578l23.333,16.187l-11.91,14.854
			c-3.861,4.815-3.414,11.586,0.997,15.123c4.411,3.537,11.117,2.501,14.978-2.314l19.248-24.007
			c3.861-4.815,3.414-11.586-0.997-15.123c-1.729-1.387-8.148-5.073-9.779-6.205l-9.935-7.586l2.73-3.435
			c1.052-1.323,1.736-2.778,2.102-4.274l18.506,7.623c0,0,8.535,3.667,12.035,0.23C291.695,163.279,299.262,156.262,285.762,148.595
			z"/>
		
			<ellipse fill="#DADADA" stroke="#3C3C3B" stroke-width="3" stroke-miterlimit="10" cx="267.262" cy="112.429" rx="16.5" ry="16.167"/>
		<path fill="#3C3C3B" stroke="#3C3C3B" stroke-width="3" stroke-miterlimit="10" d="M263.429,98.595c0,0-2.042,7.041-3.083,9.083
			c-1.126,2.208-5.583,7.917-5.583,7.917l1.629,8.99c0,0-21.177,3.467-27.629,1c-3.03-1.158-8.17-6.778-9.667-9.656
			c-1.667-3.208-2.625-11,6.333-13c5.928-1.324,14.192,0.029,17.071-0.884c2.723-0.864,3.977-3.668,6.718-4.866
			c4.314-1.884,14.226-3.271,18.753-2.625c4.584,0.654,10.008,3.86,13.818,10.202c3.182,5.298,1.974,11.173,1.974,11.173
			s-11.956-6.009-14.292-8C266.722,105.586,263.429,98.595,263.429,98.595z"/>
		<path stroke="#3C3C3B" stroke-width="3" stroke-miterlimit="10" d="M260.346,107.679"/>
	</g>
	<g>
		<path fill="#3C3C3B" stroke="#3C3C3B" d="M73.318,243.834l4.475,4.158l-4.5,8.304l7.939-5.109l4.473,4.156l-10.232,11.013
			l-2.787-2.59l7.803-8.398l-9.951,6.403l-2.522-2.344l5.66-10.39l-7.803,8.398l-2.787-2.589L73.318,243.834z"/>
		<path fill="#3C3C3B" stroke="#3C3C3B" d="M84.297,263.703c1.344-2.053,2.963-3.277,4.855-3.672
			c1.893-0.395,3.86,0.076,5.902,1.413c2.093,1.371,3.338,2.988,3.735,4.854c0.396,1.865-0.068,3.81-1.394,5.834
			c-0.962,1.47-1.999,2.513-3.109,3.13c-1.111,0.617-2.305,0.881-3.583,0.792c-1.278-0.089-2.615-0.59-4.01-1.504
			c-1.418-0.929-2.445-1.923-3.078-2.983c-0.634-1.061-0.919-2.269-0.856-3.625C82.822,266.585,83.334,265.172,84.297,263.703z
			 M88.172,266.264c-0.831,1.27-1.193,2.336-1.084,3.2c0.108,0.864,0.569,1.561,1.381,2.093c0.835,0.547,1.659,0.698,2.472,0.455
			c0.813-0.244,1.681-1.069,2.602-2.476c0.775-1.184,1.103-2.205,0.983-3.064c-0.12-0.859-0.589-1.556-1.407-2.091
			c-0.784-0.513-1.594-0.647-2.432-0.404C89.849,264.221,89.011,264.983,88.172,266.264z"/>
		<path fill="#3C3C3B" stroke="#3C3C3B" d="M99.779,276.389l4.141,1.569c-0.208,0.693-0.256,1.272-0.144,1.736
			c0.185,0.751,0.683,1.31,1.493,1.676c0.604,0.273,1.134,0.343,1.589,0.207s0.767-0.39,0.936-0.764
			c0.161-0.354,0.149-0.743-0.036-1.164c-0.185-0.421-0.788-1.013-1.809-1.774c-1.667-1.257-2.74-2.41-3.218-3.459
			c-0.484-1.052-0.484-2.113,0-3.185c0.318-0.704,0.823-1.276,1.514-1.718c0.691-0.442,1.527-0.656,2.508-0.644
			c0.981,0.012,2.185,0.341,3.611,0.986c1.75,0.792,2.937,1.721,3.562,2.788c0.624,1.066,0.702,2.349,0.234,3.848l-4.095-1.571
			c0.173-0.665,0.153-1.214-0.06-1.647c-0.213-0.434-0.618-0.786-1.216-1.057c-0.492-0.222-0.91-0.286-1.253-0.19
			c-0.344,0.096-0.583,0.293-0.718,0.593c-0.099,0.218-0.084,0.46,0.042,0.728c0.118,0.271,0.515,0.653,1.192,1.146
			c1.669,1.236,2.812,2.238,3.428,3.008c0.616,0.771,0.969,1.54,1.06,2.309c0.091,0.77-0.032,1.527-0.371,2.274
			c-0.397,0.879-1.006,1.578-1.827,2.1c-0.821,0.521-1.754,0.776-2.8,0.766c-1.045-0.012-2.231-0.317-3.558-0.918
			c-2.33-1.054-3.74-2.231-4.231-3.534S99.272,277.825,99.779,276.389z"/>
		<path fill="#3C3C3B" stroke="#3C3C3B" d="M118.629,273.707l13.589,3.835l-1.008,3.572l-4.56-1.287l-3.074,10.895l-4.471-1.261
			l3.075-10.896l-4.559-1.286L118.629,273.707z"/>
		<path fill="#3C3C3B" stroke="#3C3C3B" d="M143.814,279.291l7.714,0.333c1.68,0.072,2.921,0.526,3.723,1.361
			s1.171,1.99,1.108,3.466c-0.065,1.516-0.572,2.681-1.521,3.495c-0.948,0.814-2.358,1.182-4.229,1.101l-2.541-0.109l-0.24,5.573
			l-4.661-0.201L143.814,279.291z M148.199,285.895l1.137,0.05c0.895,0.038,1.53-0.09,1.905-0.385
			c0.375-0.296,0.573-0.686,0.594-1.17c0.021-0.472-0.12-0.878-0.419-1.22c-0.3-0.341-0.884-0.53-1.751-0.567l-1.322-0.058
			L148.199,285.895z"/>
		<path fill="#3C3C3B" stroke="#3C3C3B" d="M161.362,294.686l-1.036-14.996l7.724-0.533c1.432-0.1,2.535-0.052,3.309,0.141
			c0.774,0.193,1.416,0.606,1.925,1.239c0.51,0.634,0.797,1.427,0.863,2.382c0.058,0.832-0.07,1.563-0.383,2.19
			c-0.313,0.628-0.768,1.151-1.362,1.568c-0.379,0.267-0.908,0.502-1.586,0.706c0.564,0.146,0.979,0.303,1.244,0.47
			c0.179,0.111,0.444,0.356,0.796,0.737c0.352,0.38,0.589,0.676,0.713,0.887l2.544,4.19l-5.236,0.361l-2.793-4.411
			c-0.355-0.572-0.661-0.938-0.919-1.099c-0.35-0.208-0.736-0.298-1.159-0.27l-0.409,0.028l0.42,6.087L161.362,294.686z
			 M165.401,285.444l1.954-0.135c0.211-0.015,0.616-0.111,1.214-0.29c0.302-0.082,0.542-0.257,0.719-0.522
			c0.177-0.266,0.254-0.562,0.231-0.89c-0.034-0.483-0.212-0.845-0.538-1.083c-0.325-0.238-0.91-0.328-1.755-0.27l-2.036,0.141
			L165.401,285.444z"/>
		<path fill="#3C3C3B" stroke="#3C3C3B" d="M178.302,285.839c-0.45-2.412-0.129-4.416,0.964-6.011
			c1.094-1.595,2.84-2.616,5.239-3.063c2.459-0.459,4.478-0.152,6.055,0.92c1.576,1.072,2.587,2.798,3.031,5.177
			c0.322,1.727,0.296,3.197-0.079,4.411s-1.055,2.23-2.039,3.051c-0.983,0.819-2.296,1.383-3.936,1.688
			c-1.666,0.312-3.095,0.303-4.286-0.024c-1.191-0.326-2.233-1.002-3.126-2.024C179.232,288.941,178.625,287.566,178.302,285.839z
			 M182.873,285.007c0.278,1.492,0.755,2.513,1.432,3.061c0.676,0.549,1.49,0.733,2.445,0.556c0.98-0.184,1.681-0.644,2.099-1.383
			c0.419-0.738,0.474-1.935,0.165-3.588c-0.259-1.391-0.729-2.354-1.41-2.892s-1.502-0.716-2.463-0.537
			c-0.921,0.172-1.599,0.636-2.035,1.392S182.592,283.502,182.873,285.007z"/>
		<path fill="#3C3C3B" stroke="#3C3C3B" d="M207.84,283.839l-5.012,1.641l0.076,2.586l-4.508,1.476l0.693-16.044l4.815-1.576
			l10.044,12.529l-4.622,1.514L207.84,283.839z M205.913,281.05l-3.258-4.62l0.121,5.646L205.913,281.05z"/>
		<path fill="#3C3C3B" stroke="#3C3C3B" d="M224.233,272.698l4.192-0.718c0.265,1.144,0.306,2.189,0.122,3.137
			s-0.579,1.79-1.185,2.528s-1.511,1.408-2.716,2.01c-1.461,0.729-2.762,1.114-3.9,1.151c-1.139,0.038-2.312-0.31-3.518-1.043
			c-1.207-0.733-2.228-1.935-3.061-3.603c-1.111-2.225-1.373-4.23-0.786-6.016c0.586-1.786,1.962-3.219,4.127-4.301
			c1.694-0.846,3.196-1.168,4.508-0.968c1.312,0.201,2.558,0.894,3.736,2.077l-3.262,2.649c-0.333-0.346-0.617-0.578-0.853-0.698
			c-0.391-0.202-0.798-0.304-1.22-0.308c-0.422-0.003-0.841,0.099-1.256,0.307c-0.942,0.47-1.475,1.209-1.598,2.217
			c-0.099,0.751,0.152,1.729,0.754,2.932c0.744,1.49,1.48,2.399,2.209,2.726c0.729,0.326,1.503,0.285,2.322-0.124
			c0.795-0.397,1.284-0.92,1.468-1.57C224.504,274.435,224.475,273.639,224.233,272.698z"/>
		<path fill="#3C3C3B" stroke="#3C3C3B" d="M225.876,261.732l11.486-8.21l2.159,3.02l-3.854,2.754l6.583,9.21l-3.779,2.701
			l-6.583-9.209l-3.854,2.755L225.876,261.732z"/>
		<path fill="#3C3C3B" stroke="#3C3C3B" d="M239.938,251.055l3.423-3.156l10.19,11.051l-3.422,3.156L239.938,251.055z"/>
		<path fill="#3C3C3B" stroke="#3C3C3B" d="M245.77,245.907l3.119-3.721l10.464,4.357l-6.144-9.51l3.028-3.613l7.934,13.935
			l-3.235,3.858L245.77,245.907z"/>
		<path fill="#3C3C3B" stroke="#3C3C3B" d="M257.624,231.18l6.466-10.637l2.743,1.667l-4.048,6.659l2.041,1.241l3.755-6.177
			l2.62,1.592l-3.755,6.177l2.532,1.54l4.165-6.852l2.909,1.768l-6.583,10.83L257.624,231.18z"/>
	</g>
</g>
<g id="Capa_2">
</g>
</svg>
